<svg width="60" height="60" viewBox="0 0 60 60" fill="none" xmlns="http://www.w3.org/2000/svg">
<g id="interface-icon_svgrepo.com" clip-path="url(#clip0_1081_556)">
<g id="Group 12">
<path id="Path 25" d="M54.4979 28.6899H40.2185C40.2185 31.4 39.1419 33.9991 37.2256 35.9154C35.3092 37.8317 32.7102 38.9083 30.0001 38.9083C27.29 38.9083 24.691 37.8317 22.7747 35.9154C20.8584 33.9991 19.7818 31.4 19.7818 28.6899H5.50233C4.37609 28.7164 3.30531 29.1845 2.52107 29.9932C1.73683 30.802 1.30196 31.8866 1.31017 33.0131V53.6463C1.30196 54.7728 1.73683 55.8574 2.52107 56.6661C3.30531 57.4749 4.37609 57.943 5.50233 57.9694H54.4979C55.6242 57.943 56.6949 57.4749 57.4791 56.6661C58.2633 55.8574 58.6983 54.7728 58.6901 53.6463V33.0131C58.6983 31.8866 58.2633 30.802 57.4791 29.9932C56.6949 29.1845 55.6242 28.7164 54.4979 28.6899Z" stroke="#2B4EA2" stroke-width="2.62009" stroke-miterlimit="10" stroke-linecap="round" stroke-linejoin="round"/>
<path id="Path 26" d="M51.5501 28.428V13.952C51.5501 6.68122 52.7292 2.29259 46.5065 2.03058H14.1484C7.66368 2.03058 8.38417 6.35373 8.38417 12.9039V28.7555" stroke="#2B4EA2" stroke-width="2.62009" stroke-miterlimit="10" stroke-linecap="round"/>
<path id="Path 27" d="M18.2096 12.7729H17.9476C17.7571 12.7712 17.5747 12.6947 17.44 12.56C17.3052 12.4252 17.2288 12.2429 17.2271 12.0524V11.7904C17.2288 11.5998 17.3052 11.4175 17.44 11.2828C17.5747 11.148 17.7571 11.0715 17.9476 11.0698H18.2096C18.4001 11.0715 18.5825 11.148 18.7172 11.2828C18.852 11.4175 18.9285 11.5998 18.9302 11.7904V12.0524C18.9285 12.2429 18.852 12.4252 18.7172 12.56C18.5825 12.6947 18.4001 12.7712 18.2096 12.7729Z" fill="#2B4EA2" stroke="#2B4EA2" stroke-width="1.31004" stroke-miterlimit="10"/>
<path id="Path 28" d="M22.0089 19.1266H21.7469C21.5563 19.1249 21.3741 19.0485 21.2393 18.9137C21.1045 18.779 21.0281 18.5967 21.0264 18.4061V18.1441C21.0281 17.9535 21.1045 17.7713 21.2393 17.6365C21.3741 17.5018 21.5563 17.4253 21.7469 17.4236H22.0089C22.1995 17.4253 22.3817 17.5018 22.5165 17.6365C22.6512 17.7713 22.7277 17.9535 22.7294 18.1441V18.4061C22.7397 18.5033 22.7282 18.6015 22.6957 18.6936C22.6631 18.7857 22.6103 18.8694 22.5413 18.9384C22.4722 19.0075 22.3885 19.0603 22.2964 19.0928C22.2042 19.1254 22.106 19.137 22.0089 19.1266Z" fill="#2B4EA2" stroke="#2B4EA2" stroke-width="1.31004" stroke-miterlimit="10"/>
<path id="Line 6" d="M51.6812 13.0349L58.0349 30.393" stroke="#2B4EA2" stroke-width="2.62009" stroke-miterlimit="10" stroke-linecap="round"/>
<path id="Line 7" d="M1.8999 30.5895L8.18811 13.6899" stroke="#2B4EA2" stroke-width="2.62009" stroke-miterlimit="10" stroke-linecap="round"/>
<path id="Line 8" d="M23.4497 11.9214H34.9126" stroke="#2B4EA2" stroke-width="2.62009" stroke-miterlimit="10" stroke-linecap="round"/>
<path id="Line 9" d="M26.9868 18.2751H38.4497" stroke="#2B4EA2" stroke-width="2.62009" stroke-miterlimit="10" stroke-linecap="round"/>
</g>
</g>
<defs>
<clipPath id="clip0_1081_556">
<rect width="60" height="60" fill="white"/>
</clipPath>
</defs>
</svg>
