<svg width="60" height="60" viewBox="0 0 60 60" fill="none" xmlns="http://www.w3.org/2000/svg">
<g id="graphic-contract_svgrepo.com">
<path id="Vector" d="M13.7812 59.5312C10.5711 59.5312 7.96875 56.9289 7.96875 53.7188V0.46875H46.2188C49.4289 0.46875 52.0312 3.07113 52.0312 6.28125V59.5312H13.7812Z" fill="white"/>
<path id="Vector_2" d="M46.2189 0.9375C49.1702 0.9375 51.5626 3.33 51.5626 6.28125V59.0625H13.7812C10.83 59.0625 8.4375 56.6701 8.4375 53.7188V0.9375H46.2189ZM46.2189 0H7.5V53.7188C7.5 57.1879 10.3121 60 13.7812 60H52.5V6.28125C52.5001 2.81215 49.688 0 46.2189 0Z" fill="#999999"/>
<g id="Group">
<path id="Vector_3" d="M44.6983 33.3739H26.3892V34.3114H44.6983V33.3739Z" fill="#CCCCCC"/>
<path id="Vector_4" d="M44.6983 36.4479H26.3892V37.3854H44.6983V36.4479Z" fill="#CCCCCC"/>
<path id="Vector_5" d="M44.6983 22.3602H26.3892V23.2977H44.6983V22.3602Z" fill="#CCCCCC"/>
<path id="Vector_6" d="M44.6983 25.4365H26.3892V26.374H44.6983V25.4365Z" fill="#CCCCCC"/>
<path id="Vector_7" d="M44.6983 11.3476H26.3892V12.2851H44.6983V11.3476Z" fill="#CCCCCC"/>
<path id="Vector_8" d="M44.6983 14.4227H26.3892V15.3602H44.6983V14.4227Z" fill="#CCCCCC"/>
<path id="Vector_9" d="M44.6983 44.3854H26.3892V45.3229H44.6983V44.3854Z" fill="#CCCCCC"/>
<path id="Vector_10" d="M44.6983 47.4604H26.3892V48.3979H44.6983V47.4604Z" fill="#CCCCCC"/>
</g>
<path id="Vector_11" d="M19.0566 9.83905C16.9856 9.83905 15.3066 11.518 15.3066 13.5891C15.3066 15.6601 16.9856 17.3391 19.0566 17.3391C21.1277 17.3391 22.8066 15.6601 22.8066 13.5891H19.0566V9.83905Z" fill="#E21B1B"/>
<path id="Vector_12" d="M19.6436 9.63092V13.0059H23.0186C22.9248 11.1822 21.4672 9.72467 19.6436 9.63092Z" fill="black"/>
<path id="Vector_13" d="M19.0566 20.8519C16.9856 20.8519 15.3066 22.5308 15.3066 24.6019C15.3066 26.6729 16.9856 28.3519 19.0566 28.3519C21.1277 28.3519 22.8066 26.6729 22.8066 24.6019H19.0566V20.8519Z" fill="#E21B1B"/>
<path id="Vector_14" d="M19.6436 20.6428V24.0178H23.0186C22.9248 22.1942 21.4672 20.7366 19.6436 20.6428Z" fill="black"/>
<path id="Vector_15" d="M19.0483 31.8647C16.9773 31.8647 15.2983 33.5436 15.2983 35.6147C15.2983 37.6857 16.9773 39.3647 19.0483 39.3647C21.1194 39.3647 22.7983 37.6857 22.7983 35.6147H19.0483V31.8647Z" fill="#E21B1B"/>
<path id="Vector_16" d="M19.6436 31.6472V35.0222H23.0186C22.9248 33.1985 21.4672 31.741 19.6436 31.6472Z" fill="black"/>
<path id="Vector_17" d="M19.0483 42.8747C16.9773 42.8747 15.2983 44.5536 15.2983 46.6247C15.2983 48.6957 16.9773 50.3747 19.0483 50.3747C21.1194 50.3747 22.7983 48.6957 22.7983 46.6247H19.0483V42.8747Z" fill="#E21B1B"/>
<path id="Vector_18" d="M19.6436 42.6562V46.0266H23.0186C22.9225 44.2046 21.4656 42.7498 19.6436 42.6562Z" fill="black"/>
</g>
</svg>
