<svg width="60" height="60" viewBox="0 0 60 60" fill="none" xmlns="http://www.w3.org/2000/svg">
<g id="view_svgrepo.com">
<path id="Vector" d="M53.7452 47.0151L46.0881 39.3541C45.9145 39.1787 45.4833 39.3694 44.9798 39.7319L44.3541 39.1062C47.5531 34.9494 47.3662 29.0723 43.8542 25.0911V22.9336L43.8618 22.9604C43.8618 18.8208 39.9094 14.9408 37.7863 12.8577L37.3016 12.3769C31.0409 6.11616 28.4313 5.59344 26.2986 5.59344L25.5737 5.58972H8.83464C7.83882 5.58972 6.06104 6.3451 6.06104 7.85585V52.1542C6.06104 53.4056 7.07582 54.4243 8.32716 54.4243H41.5843C42.8356 54.4243 43.8543 53.4056 43.8543 52.1542V44.1422C46.0386 46.3283 50.2352 50.5251 50.2352 50.5251C50.9944 51.2805 54.5082 47.7781 53.7452 47.0151Z" fill="#27323A"/>
<path id="Vector_2" d="M41.4394 38.2133C38.2251 41.4296 32.9867 41.4335 29.7704 38.2133C26.5544 34.9934 26.5544 29.7552 29.7704 26.5389C31.3271 24.9823 33.3988 24.1277 35.604 24.1277C37.8129 24.1277 39.8827 24.9823 41.4393 26.5389C44.6556 29.7589 44.6556 34.9934 41.4394 38.2133Z" fill="white"/>
<path id="Vector_3" d="M35.3444 14.3303L35.8517 14.83C36.7407 15.7 37.9883 16.9361 39.0471 18.3132C36.9657 17.535 34.6461 17.3862 32.5822 17.3024C32.5173 15.9287 32.254 13.1247 31.3232 10.6906C32.418 11.5491 33.7342 12.7164 35.3444 14.3303Z" fill="#79CCBF"/>
<path id="Vector_4" d="M8.82715 51.6583V8.36722C8.83477 8.36333 8.86524 8.35181 8.86524 8.35181H25.5662L26.2911 8.35571C26.6574 8.35571 27.1418 8.36332 27.8402 8.59598L28.1912 8.96224C30.0873 10.8355 30.7702 15.5016 30.7702 18.1836C30.7702 18.6758 31.1593 19.0841 31.6553 19.103L32.0368 19.1184C34.902 19.229 38.473 19.3663 40.6421 21.3312L40.8403 21.5295C40.9796 21.9682 41.0713 22.4033 41.0865 22.8344C36.8651 20.4079 31.4017 20.9535 27.7943 24.5627C23.4793 28.8777 23.4793 35.8747 27.7943 40.1898C31.4036 43.7988 36.867 44.3483 41.0885 41.9179V51.6583H8.82715Z" fill="#F4CE73"/>
</g>
</svg>
